<!--?xml version="1.0" standalone="no"?-->
              <svg id="sw-js-blob-svg" viewBox="0 0 100 100" xmlns="http://www.w3.org/2000/svg" version="1.1">
                    <defs> 
                        <linearGradient id="sw-gradient" x1="0" x2="1" y1="1" y2="0">
                            <stop id="stop1" stop-color="rgba(104.295, 156.239, 252.705, 0.603)" offset="0%"></stop>
                            <stop id="stop2" stop-color="rgba(104.295, 156.239, 252.705, 0.603)" offset="100%"></stop>
                        </linearGradient>
                    </defs>
                <path fill="url(#sw-gradient)" d="M24.8,-28.2C32.8,-22.8,40.3,-15.6,43.2,-6.6C46,2.5,44.1,13.4,38.7,22C33.3,30.5,24.5,36.7,14.8,40C5.1,43.2,-5.4,43.5,-13.7,39.7C-22.1,35.8,-28.2,27.8,-31.9,19.4C-35.7,10.9,-37.1,2.1,-35.7,-6.3C-34.2,-14.7,-30,-22.7,-23.5,-28.3C-17.1,-34,-8.6,-37.4,-0.1,-37.3C8.4,-37.2,16.8,-33.6,24.8,-28.2Z" width="100%" height="100%" transform="translate(50 50)" stroke-width="0" style="transition: all 0.3s ease 0s;"></path>
              </svg>